<svg width="200" height="200" viewBox="0 0 200 200" fill="none" xmlns="http://www.w3.org/2000/svg">
  <path d="M95.4539 183.189C94.951 192.391 102.046 200.403 111.204 199.37C124.524 197.869 137.465 193.697 149.231 187.042C165.863 177.635 179.451 163.66 188.388 146.772C197.325 129.883 201.236 110.788 199.659 91.7461C198.082 72.7041 191.082 54.5125 179.489 39.3244C167.895 24.1362 152.193 12.5875 134.241 6.04497C116.289 -0.497557 96.8381 -1.75996 78.1908 2.40718C59.5435 6.57432 42.4804 15.9965 29.021 29.5587C19.4987 39.1537 12.0622 50.5366 7.10099 62.9894C3.69018 71.5506 9.54728 80.5073 18.5561 82.4487V82.4487C27.565 84.3901 36.2651 78.5063 40.3788 70.2597C43.5312 63.94 47.6841 58.1299 52.7087 53.0669C61.6763 44.0309 73.045 37.7531 85.4691 34.9767C97.8933 32.2002 110.853 33.0413 122.814 37.4004C134.775 41.7595 145.237 49.4541 152.961 59.5735C160.685 69.6929 165.349 81.8135 166.4 94.5007C167.451 107.188 164.845 119.91 158.89 131.163C152.936 142.415 143.882 151.726 132.802 157.993C126.593 161.505 119.893 163.979 112.966 165.353C103.927 167.147 95.9567 173.988 95.4539 183.189V183.189Z" fill="#C464FF" fill-opacity="0.7"/>
  <rect x="7.46814" y="103.874" width="22.6291" height="92.1965" rx="11.3145" fill="#FFBE0B" fill-opacity="0.7"/>
  <rect x="35.4713" y="138.977" width="22.6291" height="57.0935" rx="11.3145" fill="#FB5607" fill-opacity="0.7"/>
  <rect x="63.4753" y="162.197" width="22.6291" height="33.8737" rx="11.3145" fill="#FF006E" fill-opacity="0.7"/>
  <path d="M121.004 72.2V121.8C121.004 125 120.47 127.933 119.404 130.6C118.404 133.2 116.904 135.433 114.904 137.3C112.904 139.1 110.47 140.533 107.604 141.6C104.804 142.6 101.604 143.1 98.0036 143.1C94.537 143.1 91.4703 142.633 88.8036 141.7C86.2036 140.767 83.937 139.433 82.0036 137.7C80.137 135.967 78.6036 133.9 77.4036 131.5C76.2036 129.1 75.3703 126.433 74.9036 123.5L89.1036 120.7C90.237 126.767 93.137 129.8 97.8036 129.8C100.004 129.8 101.87 129.1 103.404 127.7C105.004 126.3 105.804 124.1 105.804 121.1V84.4H84.6036V72.2H121.004Z" fill="#8244B3"/>
</svg>
